{
date = "2013-12-03 17:14:36 +0000";
designer = "Shinji Pons";
designerURL = www.shinjipons.com;
familyName = "Modulo 14";
fontMaster = (
{
alignmentZones = (
"{128, 129}",
"{128, 129}",
"{128, 129}",
"{0, -2}",
"{0, -2}"
);
ascender = 128;
capHeight = 128;
customParameters = (
{
name = familyName;
value = "Modulo 14";
}
);
descender = 0;
guideLines = (
{
position = "{-18, 57}";
},
{
angle = 90;
position = "{79, 135}";
},
{
angle = 90;
position = "{65, 126}";
},
{
position = "{-18, 71}";
},
{
angle = 90;
position = "{22, 143}";
},
{
angle = 90;
position = "{122, 136}";
},
{
position = "{-19, 114}";
},
{
position = "{-20, 14}";
},
{
angle = 90;
position = "{136, -22}";
},
{
angle = 90;
position = "{8, -30}";
}
);
horizontalStems = (
14
);
id = "940E2F63-624A-4C3D-A909-721782B4CF41";
userData = {
GSOffsetHorizontal = "-1";
GSOffsetMakeStroke = 1;
GSOffsetPosition = 0;
GSOffsetProportional = 1;
GSOffsetVertical = 10;
};
verticalStems = (
14
);
weightValue = 14;
widthValue = 128;
xHeight = 128;
}
);
glyphs = (
{
glyphname = A;
lastChange = "2013-12-06 17:49:01 +0000";
layers = (
{
guideLines = (
{
position = "{-11, 64}";
showMeasurement = 1;
},
{
angle = 90;
position = "{50, -8}";
showMeasurement = 1;
}
);
layerId = "940E2F63-624A-4C3D-A909-721782B4CF41";
name = Regular;
paths = (
{
closed = 1;
nodes = (
"10 126 LINE",
"134 126 LINE",
"134 2 LINE",
"10 2 LINE",
"10 69 LINE",
"77 69 LINE",
"77 59 LINE",
"20 59 LINE",
"20 12 LINE",
"124 12 LINE",
"124 116 LINE",
"10 116 LINE"
);
},
{
closed = 1;
nodes = (
"122 114 LINE",
"122 14 LINE",
"22 14 LINE",
"22 57 LINE",
"79 57 LINE",
"79 71 LINE",
"8 71 LINE",
"8 0 LINE",
"136 0 LINE",
"136 128 LINE",
"8 128 LINE",
"8 114 LINE"
);
}
);
width = 144;
}
);
unicode = 0041;
},
{
glyphname = B;
lastChange = "2013-12-06 17:49:07 +0000";
layers = (
{
layerId = "940E2F63-624A-4C3D-A909-721782B4CF41";
name = Regular;
paths = (
{
closed = 1;
nodes = (
"10 126 LINE",
"10 2 LINE",
"20 2 LINE",
"20 116 LINE",
"124 116 LINE",
"124 69 LINE",
"67 69 LINE",
"67 59 LINE",
"124 59 LINE",
"124 12 LINE",
"67 12 LINE",
"67 2 LINE",
"134 2 LINE",
"134 126 LINE"
);
},
{
closed = 1;
nodes = (
"136 0 LINE",
"65 0 LINE",
"65 14 LINE",
"122 14 LINE",
"122 57 LINE",
"65 57 LINE",
"65 71 LINE",
"122 71 LINE",
"122 114 LINE",
"22 114 LINE",
"22 0 LINE",
"8 0 LINE",
"8 128 LINE",
"136 128 LINE"
);
}
);
width = 144;
}
);
unicode = 0042;
},
{
glyphname = C;
lastChange = "2013-12-06 17:49:09 +0000";
layers = (
{
layerId = "940E2F63-624A-4C3D-A909-721782B4CF41";
name = Regular;
paths = (
{
closed = 1;
nodes = (
"10 2 LINE",
"10 126 LINE",
"134 126 LINE",
"134 116 LINE",
"20 116 LINE",
"20 12 LINE",
"134 12 LINE",
"134 2 LINE"
);
},
{
closed = 1;
nodes = (
"136 14 LINE",
"22 14 LINE",
"22 114 LINE",
"136 114 LINE",
"136 128 LINE",
"8 128 LINE",
"8 0 LINE",
"136 0 LINE"
);
}
);
width = 144;
}
);
unicode = 0043;
},
{
glyphname = D;
lastChange = "2013-12-06 17:49:12 +0000";
layers = (
{
layerId = "940E2F63-624A-4C3D-A909-721782B4CF41";
name = Regular;
paths = (
{
closed = 1;
nodes = (
"134 126 LINE",
"10 126 LINE",
"10 116 LINE",
"124 116 LINE",
"124 12 LINE",
"20 12 LINE",
"20 69 LINE",
"10 69 LINE",
"10 2 LINE",
"134 2 LINE"
);
},
{
closed = 1;
nodes = (
"8 0 LINE",
"8 71 LINE",
"22 71 LINE",
"22 14 LINE",
"122 14 LINE",
"122 114 LINE",
"8 114 LINE",
"8 128 LINE",
"136 128 LINE",
"136 0 LINE"
);
}
);
width = 144;
}
);
unicode = 0044;
},
{
glyphname = E;
lastChange = "2013-12-06 17:49:14 +0000";
layers = (
{
layerId = "940E2F63-624A-4C3D-A909-721782B4CF41";
name = Regular;
paths = (
{
closed = 1;
nodes = (
"134 59 LINE",
"134 126 LINE",
"67 126 LINE",
"67 116 LINE",
"124 116 LINE",
"124 69 LINE",
"20 69 LINE",
"20 126 LINE",
"10 126 LINE",
"10 2 LINE",
"134 2 LINE",
"134 12 LINE",
"20 12 LINE",
"20 59 LINE"
);
},
{
closed = 1;
nodes = (
"22 14 LINE",
"136 14 LINE",
"136 0 LINE",
"8 0 LINE",
"8 128 LINE",
"22 128 LINE",
"22 71 LINE",
"122 71 LINE",
"122 114 LINE",
"65 114 LINE",
"65 128 LINE",
"136 128 LINE",
"136 57 LINE",
"22 57 LINE"
);
}
);
width = 144;
}
);
unicode = 0045;
},
{
glyphname = F;
lastChange = "2013-12-06 17:49:15 +0000";
layers = (
{
layerId = "940E2F63-624A-4C3D-A909-721782B4CF41";
name = Regular;
paths = (
{
closed = 1;
nodes = (
"20 2 LINE",
"20 59 LINE",
"134 59 LINE",
"134 69 LINE",
"20 69 LINE",
"20 116 LINE",
"134 116 LINE",
"134 126 LINE",
"10 126 LINE",
"10 2 LINE"
);
},
{
closed = 1;
nodes = (
"8 128 LINE",
"136 128 LINE",
"136 114 LINE",
"22 114 LINE",
"22 71 LINE",
"136 71 LINE",
"136 57 LINE",
"22 57 LINE",
"22 0 LINE",
"8 0 LINE"
);
}
);
width = 144;
}
);
unicode = 0046;
},
{
glyphname = H;
lastChange = "2013-12-06 17:49:18 +0000";
layers = (
{
layerId = "940E2F63-624A-4C3D-A909-721782B4CF41";
name = Regular;
paths = (
{
closed = 1;
nodes = (
"124 126 LINE",
"124 69 LINE",
"20 69 LINE",
"20 126 LINE",
"10 126 LINE",
"10 2 LINE",
"20 2 LINE",
"20 59 LINE",
"124 59 LINE",
"124 2 LINE",
"134 2 LINE",
"134 126 LINE"
);
},
{
closed = 1;
nodes = (
"136 0 LINE",
"122 0 LINE",
"122 57 LINE",
"22 57 LINE",
"22 0 LINE",
"8 0 LINE",
"8 128 LINE",
"22 128 LINE",
"22 71 LINE",
"122 71 LINE",
"122 128 LINE",
"136 128 LINE"
);
}
);
width = 144;
}
);
unicode = 0048;
},
{
glyphname = J;
lastChange = "2013-12-06 17:49:20 +0000";
layers = (
{
layerId = "940E2F63-624A-4C3D-A909-721782B4CF41";
name = Regular;
paths = (
{
closed = 1;
nodes = (
"67 126 LINE",
"67 116 LINE",
"124 116 LINE",
"124 12 LINE",
"10 12 LINE",
"10 2 LINE",
"134 2 LINE",
"134 126 LINE"
);
},
{
closed = 1;
nodes = (
"136 0 LINE",
"8 0 LINE",
"8 14 LINE",
"122 14 LINE",
"122 114 LINE",
"65 114 LINE",
"65 128 LINE",
"136 128 LINE"
);
}
);
width = 144;
}
);
unicode = 004A;
},
{
glyphname = K;
lastChange = "2013-12-06 17:49:22 +0000";
layers = (
{
layerId = "940E2F63-624A-4C3D-A909-721782B4CF41";
name = Regular;
paths = (
{
closed = 1;
nodes = (
"134 116 LINE",
"134 126 LINE",
"67 126 LINE",
"67 69 LINE",
"20 69 LINE",
"20 126 LINE",
"10 126 LINE",
"10 2 LINE",
"20 2 LINE",
"20 59 LINE",
"124 59 LINE",
"124 2 LINE",
"134 2 LINE",
"134 69 LINE",
"77 69 LINE",
"77 116 LINE"
);
},
{
closed = 1;
nodes = (
"79 71 LINE",
"136 71 LINE",
"136 0 LINE",
"122 0 LINE",
"122 57 LINE",
"22 57 LINE",
"22 0 LINE",
"8 0 LINE",
"8 128 LINE",
"22 128 LINE",
"22 71 LINE",
"65 71 LINE",
"65 128 LINE",
"136 128 LINE",
"136 114 LINE",
"79 114 LINE"
);
}
);
width = 144;
}
);
unicode = 004B;
},
{
glyphname = L;
lastChange = "2013-12-06 17:49:23 +0000";
layers = (
{
layerId = "940E2F63-624A-4C3D-A909-721782B4CF41";
name = Regular;
paths = (
{
closed = 1;
nodes = (
"134 2 LINE",
"134 12 LINE",
"20 12 LINE",
"20 126 LINE",
"10 126 LINE",
"10 2 LINE"
);
},
{
closed = 1;
nodes = (
"8 128 LINE",
"22 128 LINE",
"22 14 LINE",
"136 14 LINE",
"136 0 LINE",
"8 0 LINE"
);
}
);
width = 144;
}
);
unicode = 004C;
},
{
glyphname = M;
lastChange = "2013-12-06 17:49:25 +0000";
layers = (
{
layerId = "940E2F63-624A-4C3D-A909-721782B4CF41";
name = Regular;
paths = (
{
closed = 1;
nodes = (
"10 126 LINE",
"10 2 LINE",
"20 2 LINE",
"20 116 LINE",
"67 116 LINE",
"67 2 LINE",
"77 2 LINE",
"77 116 LINE",
"124 116 LINE",
"124 2 LINE",
"134 2 LINE",
"134 126 LINE"
);
},
{
closed = 1;
nodes = (
"136 0 LINE",
"122 0 LINE",
"122 114 LINE",
"79 114 LINE",
"79 0 LINE",
"65 0 LINE",
"65 114 LINE",
"22 114 LINE",
"22 0 LINE",
"8 0 LINE",
"8 128 LINE",
"136 128 LINE"
);
}
);
width = 144;
}
);
unicode = 004D;
},
{
glyphname = N;
lastChange = "2013-12-06 17:49:26 +0000";
layers = (
{
layerId = "940E2F63-624A-4C3D-A909-721782B4CF41";
name = Regular;
paths = (
{
closed = 1;
nodes = (
"124 126 LINE",
"124 12 LINE",
"77 12 LINE",
"77 126 LINE",
"10 126 LINE",
"10 2 LINE",
"20 2 LINE",
"20 116 LINE",
"67 116 LINE",
"67 2 LINE",
"134 2 LINE",
"134 126 LINE"
);
},
{
closed = 1;
nodes = (
"136 0 LINE",
"65 0 LINE",
"65 114 LINE",
"22 114 LINE",
"22 0 LINE",
"8 0 LINE",
"8 128 LINE",
"79 128 LINE",
"79 14 LINE",
"122 14 LINE",
"122 128 LINE",
"136 128 LINE"
);
}
);
width = 144;
}
);
unicode = 004E;
},
{
glyphname = O;
lastChange = "2013-12-06 17:49:28 +0000";
layers = (
{
layerId = "940E2F63-624A-4C3D-A909-721782B4CF41";
name = Regular;
paths = (
{
closed = 1;
nodes = (
"10 126 LINE",
"10 2 LINE",
"134 2 LINE",
"134 126 LINE"
);
},
{
closed = 1;
nodes = (
"136 0 LINE",
"8 0 LINE",
"8 128 LINE",
"136 128 LINE"
);
},
{
closed = 1;
nodes = (
"124 12 LINE",
"20 12 LINE",
"20 116 LINE",
"124 116 LINE"
);
},
{
closed = 1;
nodes = (
"22 114 LINE",
"22 14 LINE",
"122 14 LINE",
"122 114 LINE"
);
}
);
width = 144;
}
);
unicode = 004F;
},
{
glyphname = P;
lastChange = "2013-12-06 17:49:31 +0000";
layers = (
{
layerId = "940E2F63-624A-4C3D-A909-721782B4CF41";
name = Regular;
paths = (
{
closed = 1;
nodes = (
"10 2 LINE",
"10 126 LINE",
"134 126 LINE",
"134 59 LINE",
"67 59 LINE",
"67 69 LINE",
"124 69 LINE",
"124 116 LINE",
"20 116 LINE",
"20 2 LINE"
);
},
{
closed = 1;
nodes = (
"22 114 LINE",
"122 114 LINE",
"122 71 LINE",
"65 71 LINE",
"65 57 LINE",
"136 57 LINE",
"136 128 LINE",
"8 128 LINE",
"8 0 LINE",
"22 0 LINE"
);
}
);
width = 144;
}
);
unicode = 0050;
},
{
glyphname = Q;
lastChange = "2013-12-06 17:49:34 +0000";
layers = (
{
layerId = "940E2F63-624A-4C3D-A909-721782B4CF41";
name = Regular;
paths = (
{
closed = 1;
nodes = (
"10 126 LINE",
"10 2 LINE",
"134 2 LINE",
"134 126 LINE"
);
},
{
closed = 1;
nodes = (
"136 0 LINE",
"8 0 LINE",
"8 128 LINE",
"136 128 LINE"
);
},
{
closed = 1;
nodes = (
"124 12 LINE",
"77 12 LINE",
"77 69 LINE",
"67 69 LINE",
"67 12 LINE",
"20 12 LINE",
"20 116 LINE",
"124 116 LINE"
);
},
{
closed = 1;
nodes = (
"22 114 LINE",
"22 14 LINE",
"65 14 LINE",
"65 71 LINE",
"79 71 LINE",
"79 14 LINE",
"122 14 LINE",
"122 114 LINE"
);
}
);
width = 144;
}
);
unicode = 0051;
},
{
glyphname = R;
lastChange = "2013-12-06 17:49:36 +0000";
layers = (
{
layerId = "940E2F63-624A-4C3D-A909-721782B4CF41";
name = Regular;
paths = (
{
closed = 1;
nodes = (
"134 59 LINE",
"134 126 LINE",
"10 126 LINE",
"10 2 LINE",
"20 2 LINE",
"20 116 LINE",
"124 116 LINE",
"124 69 LINE",
"67 69 LINE",
"67 2 LINE",
"134 2 LINE",
"134 12 LINE",
"77 12 LINE",
"77 59 LINE"
);
},
{
closed = 1;
nodes = (
"79 14 LINE",
"136 14 LINE",
"136 0 LINE",
"65 0 LINE",
"65 71 LINE",
"122 71 LINE",
"122 114 LINE",
"22 114 LINE",
"22 0 LINE",
"8 0 LINE",
"8 128 LINE",
"136 128 LINE",
"136 57 LINE",
"79 57 LINE"
);
}
);
width = 144;
}
);
unicode = 0052;
},
{
glyphname = T;
lastChange = "2013-12-06 17:49:39 +0000";
layers = (
{
layerId = "940E2F63-624A-4C3D-A909-721782B4CF41";
name = Regular;
paths = (
{
closed = 1;
nodes = (
"10 126 LINE",
"10 116 LINE",
"67 116 LINE",
"67 2 LINE",
"77 2 LINE",
"77 116 LINE",
"134 116 LINE",
"134 126 LINE"
);
},
{
closed = 1;
nodes = (
"136 114 LINE",
"79 114 LINE",
"79 0 LINE",
"65 0 LINE",
"65 114 LINE",
"8 114 LINE",
"8 128 LINE",
"136 128 LINE"
);
}
);
width = 144;
}
);
unicode = 0054;
},
{
glyphname = V;
lastChange = "2013-12-06 17:49:41 +0000";
layers = (
{
layerId = "940E2F63-624A-4C3D-A909-721782B4CF41";
name = Regular;
paths = (
{
closed = 1;
nodes = (
"10 2 LINE",
"77 2 LINE",
"77 59 LINE",
"134 59 LINE",
"134 126 LINE",
"124 126 LINE",
"124 69 LINE",
"67 69 LINE",
"67 12 LINE",
"20 12 LINE",
"20 126 LINE",
"10 126 LINE"
);
},
{
closed = 1;
nodes = (
"22 128 LINE",
"22 14 LINE",
"65 14 LINE",
"65 71 LINE",
"122 71 LINE",
"122 128 LINE",
"136 128 LINE",
"136 57 LINE",
"79 57 LINE",
"79 0 LINE",
"8 0 LINE",
"8 128 LINE"
);
}
);
width = 144;
}
);
unicode = 0056;
},
{
glyphname = X;
lastChange = "2013-12-06 17:49:43 +0000";
layers = (
{
layerId = "940E2F63-624A-4C3D-A909-721782B4CF41";
name = Regular;
paths = (
{
closed = 1;
nodes = (
"134 116 LINE",
"134 126 LINE",
"10 126 LINE",
"10 59 LINE",
"20 59 LINE",
"20 116 LINE",
"67 116 LINE",
"67 12 LINE",
"10 12 LINE",
"10 2 LINE",
"134 2 LINE",
"134 69 LINE",
"124 69 LINE",
"124 12 LINE",
"77 12 LINE",
"77 116 LINE"
);
},
{
closed = 1;
nodes = (
"79 14 LINE",
"122 14 LINE",
"122 71 LINE",
"136 71 LINE",
"136 0 LINE",
"8 0 LINE",
"8 14 LINE",
"65 14 LINE",
"65 114 LINE",
"22 114 LINE",
"22 57 LINE",
"8 57 LINE",
"8 128 LINE",
"136 128 LINE",
"136 114 LINE",
"79 114 LINE"
);
}
);
width = 144;
}
);
unicode = 0058;
},
{
glyphname = Y;
lastChange = "2013-12-06 17:49:45 +0000";
layers = (
{
layerId = "940E2F63-624A-4C3D-A909-721782B4CF41";
name = Regular;
paths = (
{
closed = 1;
nodes = (
"124 126 LINE",
"124 69 LINE",
"20 69 LINE",
"20 126 LINE",
"10 126 LINE",
"10 59 LINE",
"124 59 LINE",
"124 12 LINE",
"10 12 LINE",
"10 2 LINE",
"134 2 LINE",
"134 126 LINE"
);
},
{
closed = 1;
nodes = (
"136 0 LINE",
"8 0 LINE",
"8 14 LINE",
"122 14 LINE",
"122 57 LINE",
"8 57 LINE",
"8 128 LINE",
"22 128 LINE",
"22 71 LINE",
"122 71 LINE",
"122 128 LINE",
"136 128 LINE"
);
}
);
width = 144;
}
);
unicode = 0059;
},
{
glyphname = zero;
lastChange = "2013-12-06 17:50:04 +0000";
layers = (
{
components = (
{
name = O;
transform = "{1, 0, 0, 1, 0, 0}";
}
);
layerId = "940E2F63-624A-4C3D-A909-721782B4CF41";
name = Regular;
paths = (
{
closed = 1;
nodes = (
"67 59 LINE",
"77 59 LINE",
"77 69 LINE",
"67 69 LINE"
);
},
{
closed = 1;
nodes = (
"79 71 LINE",
"79 57 LINE",
"65 57 LINE",
"65 71 LINE"
);
}
);
width = 144;
}
);
unicode = 0030;
},
{
glyphname = one;
lastChange = "2013-12-06 17:50:06 +0000";
layers = (
{
layerId = "940E2F63-624A-4C3D-A909-721782B4CF41";
name = Regular;
paths = (
{
closed = 1;
nodes = (
"77 12 LINE",
"77 126 LINE",
"10 126 LINE",
"10 116 LINE",
"67 116 LINE",
"67 12 LINE",
"10 12 LINE",
"10 2 LINE",
"134 2 LINE",
"134 12 LINE"
);
},
{
closed = 1;
nodes = (
"136 0 LINE",
"8 0 LINE",
"8 14 LINE",
"65 14 LINE",
"65 114 LINE",
"8 114 LINE",
"8 128 LINE",
"79 128 LINE",
"79 14 LINE",
"136 14 LINE"
);
}
);
width = 144;
}
);
unicode = 0031;
},
{
glyphname = four;
lastChange = "2013-12-06 17:50:09 +0000";
layers = (
{
layerId = "940E2F63-624A-4C3D-A909-721782B4CF41";
name = Regular;
paths = (
{
closed = 1;
nodes = (
"124 126 LINE",
"124 69 LINE",
"20 69 LINE",
"20 126 LINE",
"10 126 LINE",
"10 59 LINE",
"124 59 LINE",
"124 2 LINE",
"134 2 LINE",
"134 126 LINE"
);
},
{
closed = 1;
nodes = (
"136 0 LINE",
"122 0 LINE",
"122 57 LINE",
"8 57 LINE",
"8 128 LINE",
"22 128 LINE",
"22 71 LINE",
"122 71 LINE",
"122 128 LINE",
"136 128 LINE"
);
}
);
width = 144;
}
);
unicode = 0034;
},
{
glyphname = seven;
lastChange = "2013-12-06 17:50:11 +0000";
layers = (
{
layerId = "940E2F63-624A-4C3D-A909-721782B4CF41";
name = Regular;
paths = (
{
closed = 1;
nodes = (
"10 126 LINE",
"10 116 LINE",
"124 116 LINE",
"124 69 LINE",
"67 69 LINE",
"67 2 LINE",
"77 2 LINE",
"77 59 LINE",
"134 59 LINE",
"134 126 LINE"
);
},
{
closed = 1;
nodes = (
"136 57 LINE",
"79 57 LINE",
"79 0 LINE",
"65 0 LINE",
"65 71 LINE",
"122 71 LINE",
"122 114 LINE",
"8 114 LINE",
"8 128 LINE",
"136 128 LINE"
);
}
);
width = 144;
}
);
unicode = 0037;
},
{
glyphname = eight;
lastChange = "2013-12-06 17:50:12 +0000";
layers = (
{
layerId = "940E2F63-624A-4C3D-A909-721782B4CF41";
name = Regular;
paths = (
{
closed = 1;
nodes = (
"10 126 LINE",
"10 2 LINE",
"134 2 LINE",
"134 126 LINE"
);
},
{
closed = 1;
nodes = (
"136 0 LINE",
"8 0 LINE",
"8 128 LINE",
"136 128 LINE"
);
},
{
closed = 1;
nodes = (
"124 69 LINE",
"20 69 LINE",
"20 116 LINE",
"124 116 LINE"
);
},
{
closed = 1;
nodes = (
"22 114 LINE",
"22 71 LINE",
"122 71 LINE",
"122 114 LINE"
);
},
{
closed = 1;
nodes = (
"124 12 LINE",
"20 12 LINE",
"20 59 LINE",
"124 59 LINE"
);
},
{
closed = 1;
nodes = (
"22 57 LINE",
"22 14 LINE",
"122 14 LINE",
"122 57 LINE"
);
}
);
width = 144;
}
);
unicode = 0038;
},
{
glyphname = asterisk;
lastChange = "2013-12-06 17:50:15 +0000";
layers = (
{
components = (
{
name = plus;
transform = "{1, 0, 0, 1, 0, 0}";
}
);
layerId = "940E2F63-624A-4C3D-A909-721782B4CF41";
name = Regular;
paths = (
{
closed = 1;
nodes = (
"10 116 LINE",
"20 116 LINE",
"20 126 LINE",
"10 126 LINE"
);
},
{
closed = 1;
nodes = (
"22 128 LINE",
"22 114 LINE",
"8 114 LINE",
"8 128 LINE"
);
},
{
closed = 1;
nodes = (
"124 116 LINE",
"134 116 LINE",
"134 126 LINE",
"124 126 LINE"
);
},
{
closed = 1;
nodes = (
"136 128 LINE",
"136 114 LINE",
"122 114 LINE",
"122 128 LINE"
);
},
{
closed = 1;
nodes = (
"10 2 LINE",
"20 2 LINE",
"20 12 LINE",
"10 12 LINE"
);
},
{
closed = 1;
nodes = (
"22 14 LINE",
"22 0 LINE",
"8 0 LINE",
"8 14 LINE"
);
},
{
closed = 1;
nodes = (
"124 2 LINE",
"134 2 LINE",
"134 12 LINE",
"124 12 LINE"
);
},
{
closed = 1;
nodes = (
"136 14 LINE",
"136 0 LINE",
"122 0 LINE",
"122 14 LINE"
);
}
);
width = 144;
}
);
unicode = 002A;
},
{
glyphname = backslash;
lastChange = "2013-12-06 17:50:16 +0000";
layers = (
{
layerId = "940E2F63-624A-4C3D-A909-721782B4CF41";
name = Regular;
paths = (
{
closed = 1;
nodes = (
"10 2 LINE",
"20 2 LINE",
"20 126 LINE",
"10 126 LINE"
);
},
{
closed = 1;
nodes = (
"22 128 LINE",
"22 0 LINE",
"8 0 LINE",
"8 128 LINE"
);
},
{
closed = 1;
nodes = (
"124 2 LINE",
"134 2 LINE",
"134 126 LINE",
"124 126 LINE"
);
},
{
closed = 1;
nodes = (
"136 128 LINE",
"136 0 LINE",
"122 0 LINE",
"122 128 LINE"
);
},
{
closed = 1;
nodes = (
"67 2 LINE",
"77 2 LINE",
"77 126 LINE",
"67 126 LINE"
);
},
{
closed = 1;
nodes = (
"79 128 LINE",
"79 0 LINE",
"65 0 LINE",
"65 128 LINE"
);
}
);
width = 144;
}
);
unicode = 005C;
},
{
glyphname = bullet;
lastChange = "2013-12-06 17:50:18 +0000";
layers = (
{
layerId = "940E2F63-624A-4C3D-A909-721782B4CF41";
name = Regular;
paths = (
{
closed = 1;
nodes = (
"10 126 LINE",
"10 116 LINE",
"134 116 LINE",
"134 126 LINE"
);
},
{
closed = 1;
nodes = (
"136 114 LINE",
"8 114 LINE",
"8 128 LINE",
"136 128 LINE"
);
},
{
closed = 1;
nodes = (
"10 12 LINE",
"10 2 LINE",
"134 2 LINE",
"134 12 LINE"
);
},
{
closed = 1;
nodes = (
"136 0 LINE",
"8 0 LINE",
"8 14 LINE",
"136 14 LINE"
);
},
{
closed = 1;
nodes = (
"10 69 LINE",
"10 59 LINE",
"134 59 LINE",
"134 69 LINE"
);
},
{
closed = 1;
nodes = (
"136 57 LINE",
"8 57 LINE",
"8 71 LINE",
"136 71 LINE"
);
}
);
width = 144;
}
);
unicode = 2022;
},
{
glyphname = comma;
lastChange = "2013-12-06 17:50:21 +0000";
layers = (
{
layerId = "940E2F63-624A-4C3D-A909-721782B4CF41";
name = Regular;
paths = (
{
closed = 1;
nodes = (
"10 2 LINE",
"134 2 LINE",
"134 126 LINE",
"10 126 LINE"
);
},
{
closed = 1;
nodes = (
"136 128 LINE",
"136 0 LINE",
"8 0 LINE",
"8 128 LINE"
);
}
);
width = 144;
}
);
unicode = 002C;
},
{
glyphname = ellipsis;
lastChange = "2013-12-06 17:50:22 +0000";
layers = (
{
layerId = "940E2F63-624A-4C3D-A909-721782B4CF41";
name = Regular;
paths = (
{
closed = 1;
nodes = (
"10 126 LINE",
"10 116 LINE",
"134 116 LINE",
"134 126 LINE"
);
},
{
closed = 1;
nodes = (
"136 114 LINE",
"8 114 LINE",
"8 128 LINE",
"136 128 LINE"
);
},
{
closed = 1;
nodes = (
"10 69 LINE",
"10 59 LINE",
"134 59 LINE",
"134 69 LINE"
);
},
{
closed = 1;
nodes = (
"136 57 LINE",
"8 57 LINE",
"8 71 LINE",
"136 71 LINE"
);
},
{
closed = 1;
nodes = (
"10 2 LINE",
"20 2 LINE",
"20 12 LINE",
"10 12 LINE"
);
},
{
closed = 1;
nodes = (
"22 14 LINE",
"22 0 LINE",
"8 0 LINE",
"8 14 LINE"
);
},
{
closed = 1;
nodes = (
"67 2 LINE",
"77 2 LINE",
"77 12 LINE",
"67 12 LINE"
);
},
{
closed = 1;
nodes = (
"79 14 LINE",
"79 0 LINE",
"65 0 LINE",
"65 14 LINE"
);
},
{
closed = 1;
nodes = (
"124 2 LINE",
"134 2 LINE",
"134 12 LINE",
"124 12 LINE"
);
},
{
closed = 1;
nodes = (
"136 14 LINE",
"136 0 LINE",
"122 0 LINE",
"122 14 LINE"
);
}
);
width = 144;
}
);
unicode = 2026;
},
{
glyphname = exclam;
lastChange = "2013-12-06 17:50:24 +0000";
layers = (
{
layerId = "940E2F63-624A-4C3D-A909-721782B4CF41";
name = Regular;
paths = (
{
closed = 1;
nodes = (
"10 59 LINE",
"20 59 LINE",
"20 126 LINE",
"10 126 LINE"
);
},
{
closed = 1;
nodes = (
"22 128 LINE",
"22 57 LINE",
"8 57 LINE",
"8 128 LINE"
);
},
{
closed = 1;
nodes = (
"67 59 LINE",
"77 59 LINE",
"77 126 LINE",
"67 126 LINE"
);
},
{
closed = 1;
nodes = (
"79 128 LINE",
"79 57 LINE",
"65 57 LINE",
"65 128 LINE"
);
},
{
closed = 1;
nodes = (
"124 59 LINE",
"134 59 LINE",
"134 126 LINE",
"124 126 LINE"
);
},
{
closed = 1;
nodes = (
"136 128 LINE",
"136 57 LINE",
"122 57 LINE",
"122 128 LINE"
);
},
{
closed = 1;
nodes = (
"10 2 LINE",
"20 2 LINE",
"20 12 LINE",
"10 12 LINE"
);
},
{
closed = 1;
nodes = (
"22 14 LINE",
"22 0 LINE",
"8 0 LINE",
"8 14 LINE"
);
},
{
closed = 1;
nodes = (
"67 2 LINE",
"77 2 LINE",
"77 12 LINE",
"67 12 LINE"
);
},
{
closed = 1;
nodes = (
"79 14 LINE",
"79 0 LINE",
"65 0 LINE",
"65 14 LINE"
);
},
{
closed = 1;
nodes = (
"124 2 LINE",
"134 2 LINE",
"134 12 LINE",
"124 12 LINE"
);
},
{
closed = 1;
nodes = (
"136 14 LINE",
"136 0 LINE",
"122 0 LINE",
"122 14 LINE"
);
}
);
width = 144;
}
);
unicode = 0021;
},
{
glyphname = numbersign;
lastChange = "2013-12-06 17:50:27 +0000";
layers = (
{
guideLines = (
{
position = "{-28, 89}";
showMeasurement = 1;
}
);
layerId = "940E2F63-624A-4C3D-A909-721782B4CF41";
name = Regular;
paths = (
{
closed = 1;
nodes = (
"10 126 LINE",
"10 2 LINE",
"134 2 LINE",
"134 126 LINE"
);
},
{
closed = 1;
nodes = (
"136 0 LINE",
"8 0 LINE",
"8 128 LINE",
"136 128 LINE"
);
},
{
closed = 1;
nodes = (
"20 116 LINE",
"67 116 LINE",
"67 69 LINE",
"20 69 LINE"
);
},
{
closed = 1;
nodes = (
"65 71 LINE",
"65 114 LINE",
"22 114 LINE",
"22 71 LINE"
);
},
{
closed = 1;
nodes = (
"77 116 LINE",
"124 116 LINE",
"124 69 LINE",
"77 69 LINE"
);
},
{
closed = 1;
nodes = (
"122 71 LINE",
"122 114 LINE",
"79 114 LINE",
"79 71 LINE"
);
},
{
closed = 1;
nodes = (
"20 59 LINE",
"67 59 LINE",
"67 12 LINE",
"20 12 LINE"
);
},
{
closed = 1;
nodes = (
"65 14 LINE",
"65 57 LINE",
"22 57 LINE",
"22 14 LINE"
);
},
{
closed = 1;
nodes = (
"77 59 LINE",
"124 59 LINE",
"124 12 LINE",
"77 12 LINE"
);
},
{
closed = 1;
nodes = (
"122 14 LINE",
"122 57 LINE",
"79 57 LINE",
"79 14 LINE"
);
}
);
width = 144;
}
);
unicode = 0023;
},
{
glyphname = question;
lastChange = "2013-12-06 17:50:31 +0000";
layers = (
{
layerId = "940E2F63-624A-4C3D-A909-721782B4CF41";
name = Regular;
paths = (
{
closed = 1;
nodes = (
"10 126 LINE",
"10 116 LINE",
"124 116 LINE",
"124 69 LINE",
"67 69 LINE",
"67 59 LINE",
"134 59 LINE",
"134 126 LINE"
);
},
{
closed = 1;
nodes = (
"136 57 LINE",
"65 57 LINE",
"65 71 LINE",
"122 71 LINE",
"122 114 LINE",
"8 114 LINE",
"8 128 LINE",
"136 128 LINE"
);
},
{
closed = 1;
nodes = (
"67 2 LINE",
"77 2 LINE",
"77 12 LINE",
"67 12 LINE"
);
},
{
closed = 1;
nodes = (
"79 14 LINE",
"79 0 LINE",
"65 0 LINE",
"65 14 LINE"
);
}
);
width = 144;
}
);
unicode = 003F;
},
{
glyphname = braceleft;
lastChange = "2013-12-06 17:50:35 +0000";
layers = (
{
layerId = "940E2F63-624A-4C3D-A909-721782B4CF41";
name = Regular;
paths = (
{
closed = 1;
nodes = (
"134 116 LINE",
"134 126 LINE",
"67 126 LINE",
"67 69 LINE",
"10 69 LINE",
"10 59 LINE",
"67 59 LINE",
"67 2 LINE",
"134 2 LINE",
"134 12 LINE",
"77 12 LINE",
"77 116 LINE"
);
},
{
closed = 1;
nodes = (
"79 14 LINE",
"136 14 LINE",
"136 0 LINE",
"65 0 LINE",
"65 57 LINE",
"8 57 LINE",
"8 71 LINE",
"65 71 LINE",
"65 128 LINE",
"136 128 LINE",
"136 114 LINE",
"79 114 LINE"
);
}
);
width = 144;
}
);
unicode = 007B;
},
{
color = 0;
glyphname = dollar;
lastChange = "2013-12-06 19:34:56 +0000";
layers = (
{
layerId = "940E2F63-624A-4C3D-A909-721782B4CF41";
name = Regular;
paths = (
{
closed = 1;
nodes = (
"20 116 LINE",
"20 69 LINE",
"67 69 LINE",
"67 116 LINE"
);
},
{
closed = 1;
nodes = (
"136 114 LINE",
"136 128 LINE",
"8 128 LINE",
"8 57 LINE",
"65 57 LINE",
"65 14 LINE",
"8 14 LINE",
"8 0 LINE",
"136 0 LINE",
"136 71 LINE",
"79 71 LINE",
"79 114 LINE"
);
},
{
closed = 1;
nodes = (
"65 71 LINE",
"22 71 LINE",
"22 114 LINE",
"65 114 LINE"
);
},
{
closed = 1;
nodes = (
"77 69 LINE",
"134 69 LINE",
"134 2 LINE",
"10 2 LINE",
"10 12 LINE",
"67 12 LINE",
"67 59 LINE",
"10 59 LINE",
"10 126 LINE",
"134 126 LINE",
"134 116 LINE",
"77 116 LINE"
);
},
{
closed = 1;
nodes = (
"77 59 LINE",
"77 12 LINE",
"124 12 LINE",
"124 59 LINE"
);
},
{
closed = 1;
nodes = (
"122 14 LINE",
"79 14 LINE",
"79 57 LINE",
"122 57 LINE"
);
}
);
width = 144;
}
);
unicode = 0024;
},
{
color = 0;
glyphname = euro;
lastChange = "2013-12-06 19:36:06 +0000";
layers = (
{
layerId = "940E2F63-624A-4C3D-A909-721782B4CF41";
name = Regular;
paths = (
{
closed = 1;
nodes = (
"134 116 LINE",
"134 126 LINE",
"67 126 LINE",
"67 69 LINE",
"10 69 LINE",
"10 59 LINE",
"67 59 LINE",
"67 2 LINE",
"134 2 LINE",
"134 12 LINE",
"77 12 LINE",
"77 59 LINE",
"134 59 LINE",
"134 69 LINE",
"77 69 LINE",
"77 116 LINE"
);
},
{
closed = 1;
nodes = (
"79 71 LINE",
"136 71 LINE",
"136 57 LINE",
"79 57 LINE",
"79 14 LINE",
"136 14 LINE",
"136 0 LINE",
"65 0 LINE",
"65 57 LINE",
"8 57 LINE",
"8 71 LINE",
"65 71 LINE",
"65 128 LINE",
"136 128 LINE",
"136 114 LINE",
"79 114 LINE"
);
}
);
width = 144;
}
);
unicode = 20AC;
},
{
glyphname = divide;
lastChange = "2013-12-06 17:50:54 +0000";
layers = (
{
layerId = "940E2F63-624A-4C3D-A909-721782B4CF41";
name = Regular;
paths = (
{
closed = 1;
nodes = (
"10 59 LINE",
"134 59 LINE",
"134 69 LINE",
"10 69 LINE"
);
},
{
closed = 1;
nodes = (
"136 71 LINE",
"136 57 LINE",
"8 57 LINE",
"8 71 LINE"
);
},
{
closed = 1;
nodes = (
"67 2 LINE",
"77 2 LINE",
"77 12 LINE",
"67 12 LINE"
);
},
{
closed = 1;
nodes = (
"79 14 LINE",
"79 0 LINE",
"65 0 LINE",
"65 14 LINE"
);
},
{
closed = 1;
nodes = (
"67 116 LINE",
"77 116 LINE",
"77 126 LINE",
"67 126 LINE"
);
},
{
closed = 1;
nodes = (
"79 128 LINE",
"79 114 LINE",
"65 114 LINE",
"65 128 LINE"
);
}
);
width = 144;
}
);
unicode = 00F7;
},
{
glyphname = notequal;
lastChange = "2013-12-06 19:58:18 +0000";
layers = (
{
layerId = "940E2F63-624A-4C3D-A909-721782B4CF41";
name = Regular;
paths = (
{
closed = 1;
nodes = (
"10 126 LINE",
"10 2 LINE",
"134 2 LINE",
"134 126 LINE"
);
},
{
closed = 1;
nodes = (
"136 0 LINE",
"8 0 LINE",
"8 128 LINE",
"136 128 LINE"
);
},
{
closed = 1;
nodes = (
"20 116 LINE",
"67 116 LINE",
"67 69 LINE",
"20 69 LINE"
);
},
{
closed = 1;
nodes = (
"65 71 LINE",
"65 114 LINE",
"22 114 LINE",
"22 71 LINE"
);
},
{
closed = 1;
nodes = (
"124 69 LINE",
"77 69 LINE",
"77 116 LINE",
"124 116 LINE"
);
},
{
closed = 1;
nodes = (
"79 114 LINE",
"79 71 LINE",
"122 71 LINE",
"122 114 LINE"
);
},
{
closed = 1;
nodes = (
"20 12 LINE",
"20 59 LINE",
"67 59 LINE",
"67 12 LINE"
);
},
{
closed = 1;
nodes = (
"65 57 LINE",
"22 57 LINE",
"22 14 LINE",
"65 14 LINE"
);
},
{
closed = 1;
nodes = (
"124 12 LINE",
"77 12 LINE",
"77 59 LINE",
"124 59 LINE"
);
},
{
closed = 1;
nodes = (
"79 57 LINE",
"79 14 LINE",
"122 14 LINE",
"122 57 LINE"
);
}
);
width = 144;
}
);
unicode = 2260;
},
{
color = 0;
glyphname = percent;
lastChange = "2013-12-06 17:51:25 +0000";
layers = (
{
layerId = "940E2F63-624A-4C3D-A909-721782B4CF41";
name = Regular;
paths = (
{
closed = 1;
nodes = (
"124 126 LINE",
"124 69 LINE",
"10 69 LINE",
"10 2 LINE",
"20 2 LINE",
"20 59 LINE",
"134 59 LINE",
"134 126 LINE"
);
},
{
closed = 1;
nodes = (
"136 57 LINE",
"22 57 LINE",
"22 0 LINE",
"8 0 LINE",
"8 71 LINE",
"122 71 LINE",
"122 128 LINE",
"136 128 LINE"
);
},
{
closed = 1;
nodes = (
"77 126 LINE",
"10 126 LINE",
"10 116 LINE",
"77 116 LINE"
);
},
{
closed = 1;
nodes = (
"8 114 LINE",
"8 128 LINE",
"79 128 LINE",
"79 114 LINE"
);
},
{
closed = 1;
nodes = (
"67 2 LINE",
"134 2 LINE",
"134 12 LINE",
"67 12 LINE"
);
},
{
closed = 1;
nodes = (
"136 14 LINE",
"136 0 LINE",
"65 0 LINE",
"65 14 LINE"
);
}
);
width = 144;
}
);
unicode = 0025;
},
{
glyphname = plus;
lastChange = "2013-12-06 17:51:27 +0000";
layers = (
{
layerId = "940E2F63-624A-4C3D-A909-721782B4CF41";
name = Regular;
paths = (
{
closed = 1;
nodes = (
"134 69 LINE",
"77 69 LINE",
"77 126 LINE",
"67 126 LINE",
"67 69 LINE",
"10 69 LINE",
"10 59 LINE",
"67 59 LINE",
"67 2 LINE",
"77 2 LINE",
"77 59 LINE",
"134 59 LINE"
);
},
{
closed = 1;
nodes = (
"79 57 LINE",
"79 0 LINE",
"65 0 LINE",
"65 57 LINE",
"8 57 LINE",
"8 71 LINE",
"65 71 LINE",
"65 128 LINE",
"79 128 LINE",
"79 71 LINE",
"136 71 LINE",
"136 57 LINE"
);
}
);
width = 144;
}
);
unicode = 002B;
},
{
glyphname = ampersand;
lastChange = "2013-12-06 17:51:29 +0000";
layers = (
{
layerId = "940E2F63-624A-4C3D-A909-721782B4CF41";
name = Regular;
paths = (
{
closed = 1;
nodes = (
"67 126 LINE",
"67 69 LINE",
"10 69 LINE",
"10 2 LINE",
"134 2 LINE",
"134 12 LINE",
"20 12 LINE",
"20 59 LINE",
"134 59 LINE",
"134 126 LINE"
);
},
{
closed = 1;
nodes = (
"136 57 LINE",
"22 57 LINE",
"22 14 LINE",
"136 14 LINE",
"136 0 LINE",
"8 0 LINE",
"8 71 LINE",
"65 71 LINE",
"65 128 LINE",
"136 128 LINE"
);
},
{
closed = 1;
nodes = (
"124 69 LINE",
"77 69 LINE",
"77 116 LINE",
"124 116 LINE"
);
},
{
closed = 1;
nodes = (
"79 114 LINE",
"79 71 LINE",
"122 71 LINE",
"122 114 LINE"
);
}
);
width = 144;
}
);
unicode = 0026;
},
{
glyphname = degree;
lastChange = "2013-12-06 17:51:32 +0000";
layers = (
{
layerId = "940E2F63-624A-4C3D-A909-721782B4CF41";
name = Regular;
paths = (
{
closed = 1;
nodes = (
"77 59 LINE",
"77 126 LINE",
"10 126 LINE",
"10 59 LINE"
);
},
{
closed = 1;
nodes = (
"8 128 LINE",
"79 128 LINE",
"79 57 LINE",
"8 57 LINE"
);
},
{
closed = 1;
nodes = (
"20 69 LINE",
"20 116 LINE",
"67 116 LINE",
"67 69 LINE"
);
},
{
closed = 1;
nodes = (
"65 114 LINE",
"22 114 LINE",
"22 71 LINE",
"65 71 LINE"
);
},
{
closed = 1;
nodes = (
"124 69 LINE",
"124 12 LINE",
"67 12 LINE",
"67 2 LINE",
"134 2 LINE",
"134 69 LINE"
);
},
{
closed = 1;
nodes = (
"136 0 LINE",
"65 0 LINE",
"65 14 LINE",
"122 14 LINE",
"122 71 LINE",
"136 71 LINE"
);
}
);
width = 144;
}
);
unicode = 00B0;
},
